<?xml version="1.0" encoding="UTF-8"?>
<svg id="Layer_2" data-name="Layer 2" xmlns="http://www.w3.org/2000/svg" xmlns:xlink="http://www.w3.org/1999/xlink" viewBox="0 0 66.18 38.06">
  <defs>
    <style>
      .cls-1 {
        fill: url(#linear-gradient);
      }
    </style>
    <linearGradient id="linear-gradient" x1="0" y1="19.03" x2="66.18" y2="19.03" gradientUnits="userSpaceOnUse">
      <stop offset="0" stop-color="#00a651"/>
      <stop offset="1" stop-color="#00aeef"/>
    </linearGradient>
  </defs>
  <g id="Layer_3" data-name="Layer 3">
    <path class="cls-1" d="M44.51,6.43c.56,1.41,1.12,2.81,1.68,4.22-4.37,3.39-8.73,6.78-13.1,10.17-4.37-3.39-8.73-6.78-13.1-10.17.56-1.41,1.12-2.81,1.68-4.22l11.42,8.87,11.42-8.87M49.85,7.8c3.23,8.14,6.47,16.28,9.7,24.43-1.78-.46-3.56-.92-5.34-1.37-2.68-6.74-5.35-13.47-8.03-20.21,1.22-.95,2.44-1.9,3.66-2.85M16.32,7.8c1.22.95,2.44,1.9,3.66,2.85-2.68,6.74-5.35,13.47-8.03,20.21-1.78.46-3.56.92-5.34,1.37,3.23-8.14,6.47-16.28,9.7-24.43M46.27,0l-4.21,3.27-8.97,6.97-8.97-6.97-4.21-3.27-1.68,4.22-3.66-2.85-1.97,4.95L2.9,30.75l-2.9,7.31,7.62-1.96,2-.51,3.34-.86,1.97-.51.75-1.89,6.06-15.26,8.9,6.91,2.45,1.91,2.45-1.91,8.9-6.91,6.06,15.26.75,1.89,1.97.51,3.34.86,2,.51,7.62,1.96-2.9-7.31-9.7-24.43-1.97-4.95-3.66,2.85-1.68-4.22h0Z"/>
  </g>
</svg>